<svg width="24" height="28" viewBox="0 0 24 28" fill="none" xmlns="http://www.w3.org/2000/svg">
<path d="M21.875 18C21.875 23.4538 17.4538 27.875 12 27.875C6.54619 27.875 2.125 23.4538 2.125 18C2.125 12.5462 6.54619 8.125 12 8.125C17.4538 8.125 21.875 12.5462 21.875 18Z" fill="url(#paint0_linear_869_4775)" stroke="url(#paint1_linear_869_4775)" stroke-width="0.25"/>
<path fill-rule="evenodd" clip-rule="evenodd" d="M0 2C0 0.89543 0.895431 0 2 0H8V7.74988C6.67177 8.26859 5.46908 9.03803 4.45012 10H4C1.79086 10 0 8.20914 0 6V2ZM19.5499 10H20C22.2091 10 24 8.20914 24 6V2C24 0.89543 23.1046 0 22 0H16V7.74988C17.3282 8.26859 18.5309 9.03803 19.5499 10Z" fill="url(#paint2_linear_869_4775)"/>
<path fill-rule="evenodd" clip-rule="evenodd" d="M15 0H9V7.41406C9.95366 7.14433 10.96 7 12 7C13.04 7 14.0463 7.14433 15 7.41406V0Z" fill="url(#paint3_linear_869_4775)"/>
<circle cx="12" cy="18" r="7.925" fill="url(#paint4_linear_869_4775)" stroke="url(#paint5_linear_869_4775)" stroke-width="0.15"/>
<circle cx="12" cy="18" r="6.925" fill="url(#paint6_linear_869_4775)" stroke="url(#paint7_linear_869_4775)" stroke-width="0.15"/>
<g filter="url(#filter0_i_869_4775)">
<path d="M9.26001 17.2871L9.62915 15.5371C11.3199 14.7988 12.6278 13.9398 13.553 12.96H14.7493L12.637 23.043H10.6614L12.1174 16.0977C11.7073 16.362 11.2333 16.6035 10.6956 16.8223C10.1624 17.041 9.68384 17.196 9.26001 17.2871Z" fill="#CC4429"/>
</g>
<defs>
<filter id="filter0_i_869_4775" x="9.26001" y="12.96" width="5.73926" height="10.333" filterUnits="userSpaceOnUse" color-interpolation-filters="sRGB">
<feFlood flood-opacity="0" result="BackgroundImageFix"/>
<feBlend mode="normal" in="SourceGraphic" in2="BackgroundImageFix" result="shape"/>
<feColorMatrix in="SourceAlpha" type="matrix" values="0 0 0 0 0 0 0 0 0 0 0 0 0 0 0 0 0 0 127 0" result="hardAlpha"/>
<feOffset dx="0.25" dy="0.25"/>
<feGaussianBlur stdDeviation="0.125"/>
<feComposite in2="hardAlpha" operator="arithmetic" k2="-1" k3="1"/>
<feColorMatrix type="matrix" values="0 0 0 0 0 0 0 0 0 0 0 0 0 0 0 0 0 0 0.24 0"/>
<feBlend mode="normal" in2="shape" result="effect1_innerShadow_869_4775"/>
</filter>
<linearGradient id="paint0_linear_869_4775" x1="12" y1="8" x2="12" y2="28" gradientUnits="userSpaceOnUse">
<stop stop-color="#FFC95C"/>
<stop offset="1" stop-color="#EBB242"/>
</linearGradient>
<linearGradient id="paint1_linear_869_4775" x1="12" y1="8" x2="12" y2="28" gradientUnits="userSpaceOnUse">
<stop stop-color="#FFDD99"/>
<stop offset="0.5" stop-color="#FABE46"/>
<stop offset="1" stop-color="#A37C2E"/>
</linearGradient>
<linearGradient id="paint2_linear_869_4775" x1="12" y1="0" x2="12" y2="10" gradientUnits="userSpaceOnUse">
<stop stop-color="#FA6446"/>
<stop offset="0.4" stop-color="#FF9985"/>
<stop offset="0.64" stop-color="#FA6446"/>
</linearGradient>
<linearGradient id="paint3_linear_869_4775" x1="12" y1="0" x2="12" y2="7.41406" gradientUnits="userSpaceOnUse">
<stop stop-color="#FABE46"/>
<stop offset="0.535508" stop-color="#FFD685"/>
<stop offset="0.867853" stop-color="#FABE46"/>
</linearGradient>
<linearGradient id="paint4_linear_869_4775" x1="12" y1="10" x2="12" y2="26" gradientUnits="userSpaceOnUse">
<stop stop-color="#CC9629"/>
<stop offset="1" stop-color="#EBAC2F"/>
</linearGradient>
<linearGradient id="paint5_linear_869_4775" x1="12" y1="10" x2="12" y2="26" gradientUnits="userSpaceOnUse">
<stop stop-color="#A37C2E"/>
<stop offset="0.5" stop-color="#FABE46"/>
<stop offset="1" stop-color="#FFDD99"/>
</linearGradient>
<linearGradient id="paint6_linear_869_4775" x1="12" y1="11" x2="12" y2="25" gradientUnits="userSpaceOnUse">
<stop stop-color="#FFC95C"/>
<stop offset="1" stop-color="#EBB242"/>
</linearGradient>
<linearGradient id="paint7_linear_869_4775" x1="12" y1="11" x2="12" y2="25" gradientUnits="userSpaceOnUse">
<stop stop-color="#FFDD99"/>
<stop offset="0.5" stop-color="#FABE46"/>
<stop offset="1" stop-color="#A37C2E"/>
</linearGradient>
</defs>
</svg>
