<svg width="24" height="28" viewBox="0 0 24 28" fill="none" xmlns="http://www.w3.org/2000/svg">
<path d="M21.875 18C21.875 23.4538 17.4538 27.875 12 27.875C6.54619 27.875 2.125 23.4538 2.125 18C2.125 12.5462 6.54619 8.125 12 8.125C17.4538 8.125 21.875 12.5462 21.875 18Z" fill="url(#paint0_linear_869_4799)" stroke="url(#paint1_linear_869_4799)" stroke-width="0.25"/>
<path fill-rule="evenodd" clip-rule="evenodd" d="M0 2C0 0.89543 0.895431 0 2 0H8V7.74988C6.67177 8.26859 5.46908 9.03803 4.45012 10H4C1.79086 10 0 8.20914 0 6V2ZM19.5499 10H20C22.2091 10 24 8.20914 24 6V2C24 0.89543 23.1046 0 22 0H16V7.74988C17.3282 8.26859 18.5309 9.03803 19.5499 10Z" fill="url(#paint2_linear_869_4799)"/>
<path fill-rule="evenodd" clip-rule="evenodd" d="M15 0H9V7.41406C9.95366 7.14433 10.96 7 12 7C13.04 7 14.0463 7.14433 15 7.41406V0Z" fill="url(#paint3_linear_869_4799)"/>
<circle cx="12" cy="18" r="7.925" fill="url(#paint4_linear_869_4799)" stroke="url(#paint5_linear_869_4799)" stroke-width="0.15"/>
<circle cx="12" cy="18" r="6.925" fill="url(#paint6_linear_869_4799)" stroke="url(#paint7_linear_869_4799)" stroke-width="0.15"/>
<g filter="url(#filter0_i_869_4799)">
<path d="M11.2805 16.1353L9.35962 15.8481C9.51457 14.9185 9.87459 14.2075 10.4397 13.7153C11.0094 13.2186 11.7203 12.9702 12.5725 12.9702C13.5068 12.9702 14.2405 13.2231 14.7737 13.729C15.3069 14.2349 15.5735 14.8774 15.5735 15.6567C15.5735 16.0532 15.4915 16.452 15.3274 16.853C15.1633 17.2495 14.8944 17.6665 14.5208 18.104C14.2519 18.4139 13.8121 18.8537 13.2014 19.4233C12.5907 19.9884 12.1851 20.3758 11.9846 20.5854C11.7887 20.7905 11.5995 21.0093 11.4172 21.2417H14.8899L14.5208 23.0327H8.42993C8.49373 22.5405 8.63729 22.0734 8.8606 21.6313C9.08846 21.1847 9.37101 20.77 9.70825 20.3872C10.0455 20.0044 10.663 19.3869 11.5608 18.5347C12.2353 17.8875 12.6614 17.466 12.8391 17.27C13.1581 16.9146 13.3769 16.6069 13.4954 16.3472C13.6139 16.0874 13.6731 15.8527 13.6731 15.6431C13.6731 15.3058 13.5728 15.0324 13.3723 14.8228C13.1764 14.6131 12.9257 14.5083 12.6204 14.5083C12.3105 14.5083 12.0393 14.6268 11.8069 14.8638C11.5745 15.0962 11.399 15.52 11.2805 16.1353Z" fill="#295FCC"/>
</g>
<defs>
<filter id="filter0_i_869_4799" x="8.42993" y="12.9702" width="7.39355" height="10.3125" filterUnits="userSpaceOnUse" color-interpolation-filters="sRGB">
<feFlood flood-opacity="0" result="BackgroundImageFix"/>
<feBlend mode="normal" in="SourceGraphic" in2="BackgroundImageFix" result="shape"/>
<feColorMatrix in="SourceAlpha" type="matrix" values="0 0 0 0 0 0 0 0 0 0 0 0 0 0 0 0 0 0 127 0" result="hardAlpha"/>
<feOffset dx="0.25" dy="0.25"/>
<feGaussianBlur stdDeviation="0.125"/>
<feComposite in2="hardAlpha" operator="arithmetic" k2="-1" k3="1"/>
<feColorMatrix type="matrix" values="0 0 0 0 0 0 0 0 0 0 0 0 0 0 0 0 0 0 0.24 0"/>
<feBlend mode="normal" in2="shape" result="effect1_innerShadow_869_4799"/>
</filter>
<linearGradient id="paint0_linear_869_4799" x1="12" y1="8" x2="12" y2="28" gradientUnits="userSpaceOnUse">
<stop stop-color="#E0EBFF"/>
<stop offset="1" stop-color="#B2C5EB"/>
</linearGradient>
<linearGradient id="paint1_linear_869_4799" x1="12" y1="8" x2="12" y2="28" gradientUnits="userSpaceOnUse">
<stop stop-color="#EBF2FF"/>
<stop offset="1" stop-color="#8DACEB"/>
</linearGradient>
<linearGradient id="paint2_linear_869_4799" x1="12" y1="0" x2="12" y2="10" gradientUnits="userSpaceOnUse">
<stop stop-color="#5A8FFA"/>
<stop offset="0.4" stop-color="#85ADFF"/>
<stop offset="0.64" stop-color="#5A90FA"/>
</linearGradient>
<linearGradient id="paint3_linear_869_4799" x1="12" y1="0" x2="12" y2="7.41406" gradientUnits="userSpaceOnUse">
<stop stop-color="#AACAFA"/>
<stop offset="0.535508" stop-color="#D6E7FF"/>
<stop offset="0.867853" stop-color="#AACAFA"/>
</linearGradient>
<linearGradient id="paint4_linear_869_4799" x1="12" y1="10" x2="12" y2="26" gradientUnits="userSpaceOnUse">
<stop stop-color="#B2C1EB"/>
<stop offset="1" stop-color="#D2DDFA"/>
</linearGradient>
<linearGradient id="paint5_linear_869_4799" x1="12" y1="10" x2="12" y2="26" gradientUnits="userSpaceOnUse">
<stop stop-color="#8DACEB"/>
<stop offset="1" stop-color="#EBF2FF"/>
</linearGradient>
<linearGradient id="paint6_linear_869_4799" x1="12" y1="11" x2="12" y2="25" gradientUnits="userSpaceOnUse">
<stop stop-color="#E0EBFF"/>
<stop offset="1" stop-color="#B2C5EB"/>
</linearGradient>
<linearGradient id="paint7_linear_869_4799" x1="12" y1="11" x2="12" y2="25" gradientUnits="userSpaceOnUse">
<stop stop-color="#EBF2FF"/>
<stop offset="1" stop-color="#8DACEB"/>
</linearGradient>
</defs>
</svg>
