<svg width="24" height="28" viewBox="0 0 24 28" fill="none" xmlns="http://www.w3.org/2000/svg">
<path d="M21.875 18C21.875 23.4538 17.4538 27.875 12 27.875C6.54619 27.875 2.125 23.4538 2.125 18C2.125 12.5462 6.54619 8.125 12 8.125C17.4538 8.125 21.875 12.5462 21.875 18Z" fill="url(#paint0_linear_869_4823)" stroke="url(#paint1_linear_869_4823)" stroke-width="0.25"/>
<path fill-rule="evenodd" clip-rule="evenodd" d="M0 2C0 0.89543 0.895431 0 2 0H8V7.74988C6.67177 8.26859 5.46908 9.03803 4.45012 10H4C1.79086 10 0 8.20914 0 6V2ZM19.5499 10H20C22.2091 10 24 8.20914 24 6V2C24 0.89543 23.1046 0 22 0H16V7.74988C17.3282 8.26859 18.5309 9.03803 19.5499 10Z" fill="url(#paint2_linear_869_4823)"/>
<path fill-rule="evenodd" clip-rule="evenodd" d="M15 0H9V7.41406C9.95366 7.14433 10.96 7 12 7C13.04 7 14.0463 7.14433 15 7.41406V0Z" fill="url(#paint3_linear_869_4823)"/>
<circle cx="12" cy="18" r="7.925" fill="url(#paint4_linear_869_4823)" stroke="url(#paint5_linear_869_4823)" stroke-width="0.15"/>
<circle cx="12" cy="18" r="6.925" fill="url(#paint6_linear_869_4823)" stroke="url(#paint7_linear_869_4823)" stroke-width="0.15"/>
<g filter="url(#filter0_i_869_4823)">
<path d="M8.43994 20.3242L10.3198 20.0986C10.3973 20.6318 10.5363 21.001 10.7368 21.2061C10.9419 21.4111 11.2131 21.5137 11.5503 21.5137C11.9969 21.5137 12.366 21.3633 12.6577 21.0625C12.9539 20.7617 13.1021 20.3766 13.1021 19.9072C13.1021 19.4971 12.9836 19.1735 12.7466 18.9365C12.5096 18.695 12.1906 18.5742 11.7896 18.5742C11.6893 18.5742 11.5845 18.5833 11.4751 18.6016L11.8169 16.9678C11.8853 16.9769 11.9513 16.9814 12.0151 16.9814C12.5392 16.9814 12.938 16.8493 13.2114 16.585C13.4849 16.3161 13.6216 15.9538 13.6216 15.498C13.6216 15.1745 13.5282 14.9193 13.3413 14.7324C13.159 14.5456 12.9175 14.4521 12.6167 14.4521C12.3341 14.4521 12.0812 14.557 11.8579 14.7666C11.6346 14.9717 11.4569 15.3249 11.3247 15.8262L9.53369 15.4707C9.76156 14.7324 10.0783 14.165 10.4839 13.7686C11.0991 13.1761 11.8556 12.8799 12.7534 12.8799C13.674 12.8799 14.3735 13.1374 14.8521 13.6523C15.3306 14.1628 15.5698 14.7757 15.5698 15.4912C15.5698 16.0107 15.4172 16.4801 15.1118 16.8994C14.8065 17.3187 14.3872 17.6263 13.854 17.8223C14.2778 18.0456 14.59 18.335 14.7905 18.6904C14.991 19.0459 15.0913 19.4173 15.0913 19.8047C15.0913 20.543 14.8293 21.222 14.3052 21.8418C13.5897 22.6895 12.6668 23.1133 11.5366 23.1133C10.689 23.1133 9.98942 22.8717 9.43799 22.3887C8.89111 21.901 8.55843 21.2129 8.43994 20.3242Z" fill="#CC5429"/>
</g>
<defs>
<filter id="filter0_i_869_4823" x="8.43994" y="12.8799" width="7.37988" height="10.4834" filterUnits="userSpaceOnUse" color-interpolation-filters="sRGB">
<feFlood flood-opacity="0" result="BackgroundImageFix"/>
<feBlend mode="normal" in="SourceGraphic" in2="BackgroundImageFix" result="shape"/>
<feColorMatrix in="SourceAlpha" type="matrix" values="0 0 0 0 0 0 0 0 0 0 0 0 0 0 0 0 0 0 127 0" result="hardAlpha"/>
<feOffset dx="0.25" dy="0.25"/>
<feGaussianBlur stdDeviation="0.125"/>
<feComposite in2="hardAlpha" operator="arithmetic" k2="-1" k3="1"/>
<feColorMatrix type="matrix" values="0 0 0 0 0 0 0 0 0 0 0 0 0 0 0 0 0 0 0.24 0"/>
<feBlend mode="normal" in2="shape" result="effect1_innerShadow_869_4823"/>
</filter>
<linearGradient id="paint0_linear_869_4823" x1="12" y1="8" x2="12" y2="28" gradientUnits="userSpaceOnUse">
<stop stop-color="#FAE8DC"/>
<stop offset="1" stop-color="#EBC9B2"/>
</linearGradient>
<linearGradient id="paint1_linear_869_4823" x1="12" y1="8" x2="12" y2="28" gradientUnits="userSpaceOnUse">
<stop stop-color="#FFF0EB"/>
<stop offset="1" stop-color="#E09F87"/>
</linearGradient>
<linearGradient id="paint2_linear_869_4823" x1="12" y1="0" x2="12" y2="10" gradientUnits="userSpaceOnUse">
<stop stop-color="#B86142"/>
<stop offset="0.4" stop-color="#FFA585"/>
<stop offset="0.64" stop-color="#B86142"/>
</linearGradient>
<linearGradient id="paint3_linear_869_4823" x1="12" y1="0" x2="12" y2="7.41406" gradientUnits="userSpaceOnUse">
<stop stop-color="#B88D7D"/>
<stop offset="0.535508" stop-color="#FFE1D6"/>
<stop offset="0.867853" stop-color="#B88D7D"/>
</linearGradient>
<linearGradient id="paint4_linear_869_4823" x1="12" y1="10" x2="12" y2="26" gradientUnits="userSpaceOnUse">
<stop stop-color="#EBC5B2"/>
<stop offset="1" stop-color="#FADFD2"/>
</linearGradient>
<linearGradient id="paint5_linear_869_4823" x1="12" y1="10" x2="12" y2="26" gradientUnits="userSpaceOnUse">
<stop stop-color="#E09F87"/>
<stop offset="1" stop-color="#FFF0EB"/>
</linearGradient>
<linearGradient id="paint6_linear_869_4823" x1="12" y1="11" x2="12" y2="25" gradientUnits="userSpaceOnUse">
<stop stop-color="#FAE8DC"/>
<stop offset="1" stop-color="#EBC9B2"/>
</linearGradient>
<linearGradient id="paint7_linear_869_4823" x1="12" y1="11" x2="12" y2="25" gradientUnits="userSpaceOnUse">
<stop stop-color="#FFF0EB"/>
<stop offset="1" stop-color="#E09F87"/>
</linearGradient>
</defs>
</svg>
